<svg height="512pt" viewBox="0 0 512 512" width="512pt" xmlns="http://www.w3.org/2000/svg"><path d="m440.5 331.742188c1.265625-1.875 2.476562-3.800782 3.621094-5.785157 20.050781-34.722656 16.601562-77.691406-8.191406-108.65625 24.054687-30.179687 28.625-73.257812 8.191406-108.648437-10.570313-18.308594-26.417969-32.347656-45.828125-40.597656-16.449219-6.992188-34.78125-9.28125-52.371094-6.644532-14.109375-35.914062-49.128906-61.410156-89.992187-61.410156-21.007813 0-40.988282 6.628906-57.777344 19.167969-14.398438 10.753906-25.652344 25.570312-32.207032 42.214843-13.015624-1.980468-26.425781-1.265624-39.523437 2.242188-24.9375 6.679688-45.777344 22.671875-58.683594 45.027344-10.605469 18.371094-14.832031 39.183594-12.222656 60.183594 2.199219 17.671874 9.371094 34.609374 20.40625 48.46875-24.300781 30.398437-28.457031 73.539062-8.183594 108.652343 1.148438 1.992188 2.375 3.921875 3.644531 5.8125-44.910156 42.273438-70.847656 101.382813-71.382812 163.15625-.0390625 4.582031 3.042969 8.605469 7.480469 9.761719 18.632812 4.851562 37.90625 7.3125 57.296875 7.3125 66.519531 0 129.015625-28.851562 172.210937-79.292969 6.160157 1.242188 12.496094 1.902344 18.941407 1.902344 6.464843 0 12.832031-.632813 19.035156-1.867187 43.195312 50.433593 105.640625 79.257812 172.1875 79.257812 19.390625 0 38.667968-2.460938 57.296875-7.3125 4.4375-1.15625 7.519531-5.179688 7.480469-9.765625-.535157-61.859375-26.476563-120.886719-71.429688-163.179687zm-13.699219-15.785157c-13.632812 23.617188-38.726562 37.808594-65.125 38.300781 14.894531-12.097656 24.8125-28.996093 28.082031-48.035156 2.828126-16.488281.4375-33.121094-6.738281-47.910156 7.121094-3.804688 13.566407-8.65625 19.164063-14.378906.605468-.171875 1.203125-.386719 1.785156-.679688 1.605469-.8125 3.214844-1.683594 4.78125-2.585937 4.652344-2.6875 8.992188-5.710938 13.015625-9.011719 18.335937 24.394531 20.535156 57.453125 5.035156 84.300781zm-259.660156 24.773438c-24.417969-17.742188-31.410156-50.109375-17.34375-76.019531 2.671875 14.722656 9.714844 28.277343 20.523437 39.085937 14.351563 14.351563 33.328126 21.796875 52.503907 21.796875 8.070312 0 16.175781-1.324219 23.988281-4.003906v9.914062c-20.074219 23.363282-54.433594 27.5625-79.671875 9.226563zm-55.421875-170.570313c8.15625-25.101562 31.070312-40.992187 56.085938-40.992187 1.355468 0 2.71875.050781 4.089843.144531-.527343.5-1.0625.988281-1.574219 1.5-23.019531 23.015625-28.257812 57.933594-13.515624 86.476562-4.359376 8.4375-7.058594 17.667969-7.917969 27.285157-.234375-.105469-.464844-.214844-.710938-.300781-30.425781-10.835938-46.4375-43.390626-36.457031-74.113282zm145.09375-105.414062c29.15625 0 53.183594 20.605468 58.25 48.363281-18.800781-6.515625-39.839844-5.3125-58.234375 4.191406-10.390625-5.371093-21.980469-8.230469-34.015625-8.230469-8.382812 0-16.550781 1.394532-24.253906 4.050782 5.0625-27.761719 29.089844-48.375 58.253906-48.375zm108.636719 179.527344c-.230469.082031-.445313.183593-.664063.28125-.855468-9.328126-3.492187-18.570313-7.96875-27.234376 5.371094-10.390624 8.230469-21.980468 8.230469-34.011718 0-19.832032-7.722656-38.472656-21.742187-52.496094-.507813-.507812-1.03125-.996094-1.550782-1.488281 26.558594-1.828125 51.554688 14.378906 60.152344 40.835937 9.980469 30.722656-6.03125 63.277344-36.457031 74.113282zm-142.636719-115.203126c14.488281 0 28.109375 5.640626 38.351562 15.882813 4.777344 4.777344 8.566407 10.351563 11.25 16.417969-4.96875-1.390625-10.195312-2.148438-15.601562-2.148438-16.648438 0-31.671875 7.050782-42.269531 18.3125-16.523438 1.847656-31.949219 9.183594-43.84375 20.910156-5.441407-18.644531-.523438-39.203124 13.765625-53.492187 10.242187-10.242187 23.863281-15.882813 38.347656-15.882813zm106.347656 15.886719c10.246094 10.242188 15.886719 23.863281 15.886719 38.351563 0 14.484375-5.640625 28.105468-15.882813 38.347656-4.777343 4.777344-10.351562 8.570312-16.417968 11.253906 1.390625-4.96875 2.148437-10.199218 2.148437-15.605468 0-.921876-.027343-1.84375-.070312-2.757813-.730469-15.542969-7.609375-29.5-18.242188-39.511719-1.84375-16.519531-9.183593-31.945312-20.910156-43.839844 18.640625-5.449218 39.203125-.527343 53.488281 13.761719zm-37.152344 57.828125c-.238281-.003906-.476562-.011718-.714843-.011718-12.605469 0-24.5625 3.972656-34.480469 11.332031-9.921875-7.359375-21.875-11.332031-34.480469-11.332031-.238281 0-.476562.007812-.714843.011718 5.71875-13.816406 19.339843-23.5625 35.195312-23.5625 15.859375 0 29.476562 9.746094 35.195312 23.5625zm-72.859374 20.136719c1.058593-.089844 2.121093-.148437 3.183593-.148437 10.371094 0 20.066407 4.101562 27.308594 11.554687 1.882813 1.9375 4.46875 3.03125 7.171875 3.03125s5.289062-1.09375 7.171875-3.03125c7.238281-7.453125 16.9375-11.554687 27.308594-11.554687 1.0625 0 2.125.058593 3.183593.148437-2.722656 18.34375-18.574218 32.464844-37.664062 32.464844s-34.941406-14.121094-37.664062-32.464844zm-34.6875-9.96875c4.777343-4.777344 10.351562-8.566406 16.417968-11.25-1.390625 4.96875-2.148437 10.195313-2.148437 15.601563 0 16.648437 7.050781 31.671874 18.3125 42.273437 1.84375 16.519531 9.183593 31.945313 20.914062 43.839844-18.648437 5.445312-39.207031.523437-53.492187-13.765625-10.246094-10.242188-15.886719-23.863282-15.886719-38.347656 0-14.488282 5.640625-28.109376 15.882813-38.351563zm68 76.699219c-4.777344-4.773438-8.570313-10.347656-11.25-16.414063 4.96875 1.390625 10.195312 2.148438 15.601562 2.148438 16.648438 0 31.671875-7.050781 42.269531-18.3125 16.519531-1.847657 31.949219-9.183594 43.84375-20.914063 5.441407 18.648438.523438 39.207032-13.765625 53.492188-10.242187 10.246094-23.863281 15.886718-38.351562 15.886718-14.484375 0-28.105469-5.640624-38.347656-15.886718zm14.351562 31.921875c7.625 2.597656 15.707031 3.964843 24 3.964843 19.828125 0 38.472656-7.722656 52.492188-21.742187 10.96875-10.96875 17.890624-24.644531 20.546874-39.039063 14.03125 25.902344 7.035157 58.242188-17.367187 75.972657-25.238281 18.339843-59.597656 14.132812-79.671875-9.226563zm159.988281-202.921875c15.09375 26.136718 12.976563 57.5625-2.792969 81.085937 1.714844-11.863281.722657-24.050781-3.082031-35.757812-6.421875-19.757813-20.082031-35.96875-38.46875-45.636719-9.683593-5.09375-20.121093-8.066406-30.742187-8.894531.5625-4.234375.855468-8.515625.855468-12.808594 0-5.371094-.445312-10.644531-1.296874-15.78125 30.328124-3.730469 59.933593 10.78125 75.527343 37.792969zm-170.871093-98.652344c42.261718 0 76.640624 34.382812 76.640624 76.640625 0 1.25-.035156 2.496094-.097656 3.742187-3.871094-12.449218-10.792968-23.824218-20.371094-33.15625-14.875-14.496093-34.511718-22.480468-55.289062-22.480468s-40.417969 7.984375-55.292969 22.480468c-1.523437 1.488282-2.980469 3.023438-4.367187 4.609376-3.8125-2.050782-7.722656-3.828126-11.707032-5.335938 11.949219-28.101562 39.375-46.5 70.484376-46.5zm-170.871094 98.652344c10.238281-17.726563 26.765625-30.410156 46.539062-35.707032 18.367188-4.921874 37.488282-2.917968 54.328125 5.59375-3.375 6.734376-5.78125 13.925782-7.113281 21.40625-16.277344-2.253906-32.84375.613282-47.644531 8.398438-18.386719 9.667969-32.050781 25.875-38.46875 45.636719-4.144531 12.753906-4.957031 26.078125-2.558594 38.933593-.011719.011719-.023437.019532-.039063.03125-18.078124-24.210937-20.394531-57.703124-5.042968-84.292968zm11.984375 104.957031c7.40625 14.957031 19.09375 26.976563 33.558593 34.703125-7.171874 14.789062-9.5625 31.421875-6.734374 47.90625 3.273437 19.078125 13.222656 36.003906 28.160156 48.105469-27.230469.304687-52.84375-13.902344-66.96875-38.367188-17.507813-30.324219-12.0625-68.203125 11.984375-92.347656zm-32.265625 268.390625c-15.03125 0-29.980469-1.617188-44.554688-4.820312 2.503906-53.039063 25.507813-103.355469 64.019532-140.027344 8.417968 8.152344 18.296874 14.71875 29.335937 19.410156 11.082031 4.707031 23.019531 7.277344 35.007813 7.652344l-66.347657 51.757812c-4.351562 3.394532-5.128906 9.679688-1.734375 14.035156 1.972656 2.527344 4.917969 3.847657 7.894532 3.847657 2.148437 0 4.316406-.6875 6.144531-2.113281l75.703125-59.0625c10.09375 19.253906 26.429687 34.445312 45.957031 43.304687-39.089844 42.097656-93.59375 66.015625-151.425781 66.015625zm121.773437-121.4375c5.003907.988281 10.113281 1.492188 15.269531 1.492188 3.820313 0 7.667969-.277344 11.511719-.835938 16.550781-2.402344 31.632813-9.816406 43.480469-21.210938 11.847656 11.394532 26.929688 18.808594 43.480469 21.210938 8.375 1.21875 16.75 1.070312 24.875-.324219-12.53125 26.53125-39.144531 43.714844-69.238281 43.714844-29.914063 0-56.914063-17.609375-69.378907-44.046875zm260.601563 121.4375c-57.84375 0-112.285156-23.890625-151.367188-65.964844 6.308594-2.863281 12.34375-6.414062 18.007813-10.65625 11.589843-8.675781 21.125-19.984375 27.816406-32.757812l44.238281 34.511718c1.828125 1.425782 3.996094 2.117188 6.144532 2.117188 2.976562 0 5.917968-1.320312 7.890624-3.851562 3.398438-4.351563 2.621094-10.636719-1.734374-14.035157l-34.785157-27.136719c23.957031-.785156 46.957031-10.523437 64.230469-27.160156 38.585938 36.691406 61.613281 86.976563 64.117188 140.113282-14.578126 3.203124-29.527344 4.820312-44.558594 4.820312zm0 0"/><path d="m423.539062 423.851562c-2.628906 0-5.207031 1.070313-7.070312 2.929688-1.859375 1.867188-2.929688 4.4375-2.929688 7.078125 0 2.632813 1.070313 5.199219 2.929688 7.070313 1.863281 1.859374 4.441406 2.929687 7.070312 2.929687 2.632813 0 5.210938-1.070313 7.070313-2.929687 1.859375-1.871094 2.929687-4.4375 2.929687-7.070313 0-2.640625-1.070312-5.210937-2.929687-7.078125-1.859375-1.859375-4.4375-2.929688-7.070313-2.929688zm0 0"/></svg>